<?xml version="1.0" encoding="UTF-8"?>
<svg version="1.1" xmlns="http://www.w3.org/2000/svg" width="512" height="512">
<path d="M0 0 C1.08142273 0.00747757 1.08142273 0.00747757 2.18469238 0.0151062 C12.88396015 0.10165789 23.20776061 0.43202209 33.5625 3.375 C34.75794434 3.70564453 34.75794434 3.70564453 35.97753906 4.04296875 C71.64719978 14.1997535 100.76391018 36.33869863 119.5625 68.375 C131.39788533 89.7497059 137.01017361 112.03250887 136.9375 136.4375 C136.93662384 137.1604425 136.93574768 137.88338501 136.93484497 138.62823486 C136.81014272 169.93324739 126.17062411 200.50657663 105.5625 224.375 C105.10649414 224.91318359 104.65048828 225.45136719 104.18066406 226.00585938 C87.09201862 246.01493908 64.43374346 260.09286325 39.3125 267.75 C38.14448853 268.10795654 38.14448853 268.10795654 36.95288086 268.47314453 C24.95199731 271.93125932 12.93168332 272.78541892 0.5 272.75 C-0.58341675 272.74918427 -0.58341675 272.74918427 -1.6887207 272.74835205 C-13.64492485 272.70710783 -24.92422781 271.74953457 -36.4375 268.375 C-37.49300049 268.07746826 -37.49300049 268.07746826 -38.56982422 267.77392578 C-56.40025182 262.59655283 -73.42244755 253.53241427 -87.4375 241.375 C-88.2404248 240.6931665 -88.2404248 240.6931665 -89.05957031 239.99755859 C-116.82289551 216.29220038 -133.20917953 181.94884432 -136.125 145.75 C-138.35226895 107.59432707 -125.44594421 72.10768196 -100.31640625 43.5078125 C-74.7909917 15.27766067 -37.85359723 -0.44408695 0 0 Z " fill="#00469F" transform="translate(255.4375,127.625)"/>
<path d="M0 0 C0.79567383 0.23106445 1.59134766 0.46212891 2.41113281 0.70019531 C23.76943328 7.01006111 40.70744192 16.66252291 57 32 C57.60328125 32.53882813 58.2065625 33.07765625 58.828125 33.6328125 C72.74587581 46.57502003 82.78843988 65.95114106 88 84 C88.19464844 84.6712793 88.38929688 85.34255859 88.58984375 86.03417969 C92.55609573 100.27250582 92.44710346 114.31265142 92 129 C89.4479678 126.54678461 87.83616859 124.13595626 86.0625 121.0625 C74.76641198 103.17308864 57.07869676 92.48072272 36.91796875 87.19140625 C20.18823681 83.87292317 4.70184485 85.42410738 -10 94.4375 C-11.68570172 95.59782053 -13.35469539 96.78307487 -15 98 C-15.96486328 98.70769531 -15.96486328 98.70769531 -16.94921875 99.4296875 C-20.47489924 102.23438614 -23.17026815 105.3872917 -25.9375 108.9375 C-36.35769588 122.24666033 -51.17766885 130.73870674 -68 133 C-87.38371752 134.31087225 -103.64385401 129.67990897 -118.72265625 117.0546875 C-128.15951984 108.54046752 -134.27885679 98.36821406 -138 86.25 C-138.21994629 85.55334229 -138.43989258 84.85668457 -138.66650391 84.13891602 C-141.04111819 75.75225528 -139.30478294 69.48902776 -135.1875 62 C-134.79224121 61.27087402 -134.39698242 60.54174805 -133.98974609 59.79052734 C-118.97900861 32.93316545 -94.08409462 10.73237617 -64.1875 2.0625 C-62.09938942 1.50555968 -60.00792923 0.97693367 -57.90673828 0.47167969 C-56.18344993 0.04538095 -54.47855784 -0.45366639 -52.77734375 -0.9609375 C-36.33481108 -5.40266256 -16.2828008 -4.81315495 0 0 Z " fill="#CC2D39" transform="translate(284,147)"/>
<path d="M0 0 C1.08142273 0.00747757 1.08142273 0.00747757 2.18469238 0.0151062 C12.88396015 0.10165789 23.20776061 0.43202209 33.5625 3.375 C34.75794434 3.70564453 34.75794434 3.70564453 35.97753906 4.04296875 C71.64719978 14.1997535 100.76391018 36.33869863 119.5625 68.375 C131.39788533 89.7497059 137.01017361 112.03250887 136.9375 136.4375 C136.93662384 137.1604425 136.93574768 137.88338501 136.93484497 138.62823486 C136.81014272 169.93324739 126.17062411 200.50657663 105.5625 224.375 C105.10649414 224.91318359 104.65048828 225.45136719 104.18066406 226.00585938 C87.09201862 246.01493908 64.43374346 260.09286325 39.3125 267.75 C38.14448853 268.10795654 38.14448853 268.10795654 36.95288086 268.47314453 C24.95199731 271.93125932 12.93168332 272.78541892 0.5 272.75 C-0.58341675 272.74918427 -0.58341675 272.74918427 -1.6887207 272.74835205 C-13.64492485 272.70710783 -24.92422781 271.74953457 -36.4375 268.375 C-37.49300049 268.07746826 -37.49300049 268.07746826 -38.56982422 267.77392578 C-56.40025182 262.59655283 -73.42244755 253.53241427 -87.4375 241.375 C-88.2404248 240.6931665 -88.2404248 240.6931665 -89.05957031 239.99755859 C-116.82289551 216.29220038 -133.20917953 181.94884432 -136.125 145.75 C-138.35226895 107.59432707 -125.44594421 72.10768196 -100.31640625 43.5078125 C-74.7909917 15.27766067 -37.85359723 -0.44408695 0 0 Z M-92.1484375 59.52734375 C-106.10804446 76.7243076 -106.10804446 76.7243076 -111.75 97.3125 C-111.29229015 99.74470226 -111.29229015 99.74470226 -110.4375 102.375 C-110.07011719 103.59960938 -109.70273438 104.82421875 -109.32421875 106.0859375 C-103.4581605 124.05927974 -92.05453123 137.83671263 -75.203125 146.64453125 C-60.30328161 153.84092158 -43.04961047 154.64302088 -27.4375 149.375 C-26.45265625 149.04628906 -25.4678125 148.71757812 -24.453125 148.37890625 C-11.11135477 143.38438346 -0.99604717 134.15609018 7.44140625 122.859375 C14.62456981 114.44594586 25.22731812 109.63109106 35.5625 106.375 C36.18382812 106.17390625 36.80515625 105.9728125 37.4453125 105.765625 C56.48708277 102.25238325 77.40287508 108.0501119 93.3125 118.5625 C102.65720072 125.41604586 110.28540446 133.01839566 116.125 143.0625 C117.44570115 145.18710619 118.77386109 146.65572659 120.5625 148.375 C121.67453677 111.84459203 112.95427839 80.86893399 87.6953125 53.640625 C86.99148438 52.89296875 86.28765625 52.1453125 85.5625 51.375 C85.02367187 50.77171875 84.48484375 50.1684375 83.9296875 49.546875 C65.07884105 29.27511047 34.4998117 17.18161074 7.2578125 16.00390625 C-31.85373926 15.28049313 -66.21180267 29.87892902 -92.1484375 59.52734375 Z M9.8203125 142.83984375 C0.06278054 153.51405989 -10.75850405 159.74417544 -24.4375 164.375 C-25.33597656 164.69726562 -26.23445313 165.01953125 -27.16015625 165.3515625 C-46.38336443 171.27065106 -67.39658505 167.53138238 -84.90698242 158.51635742 C-92.33357511 154.5017069 -98.68718501 149.56764691 -104.4375 143.375 C-105.05367187 142.72917969 -105.66984375 142.08335937 -106.3046875 141.41796875 C-110.69971291 136.68295081 -114.1574315 131.88727522 -117.30859375 126.24609375 C-117.68113281 125.62863281 -118.05367187 125.01117188 -118.4375 124.375 C-118.7675 124.375 -119.0975 124.375 -119.4375 124.375 C-120.00933301 144.58978774 -120.00933301 144.58978774 -116.4375 164.375 C-116.20643555 165.17357422 -115.97537109 165.97214844 -115.73730469 166.79492188 C-109.42653086 188.14835783 -99.77161006 205.08601862 -84.4375 221.375 C-83.89867187 221.97828125 -83.35984375 222.5815625 -82.8046875 223.203125 C-65.07244055 242.27197348 -36.27055695 254.79389991 -10.49707031 256.57861328 C24.95456796 257.72500197 56.99956552 247.99210773 83.28930664 223.50366211 C95.48664033 211.91151684 111.45441231 193.95242262 112.1875 176.3125 C111.23339358 160.17750039 101.98343206 146.24635337 90.5625 135.375 C77.9067059 124.66313587 61.38305948 119.59305052 44.9140625 120.03125 C29.43091598 121.61926503 19.74090051 131.95613142 9.8203125 142.83984375 Z " fill="#000000" transform="translate(255.4375,127.625)"/>
<path d="M0 0 C4.4252609 1.51230246 6.31230948 4.95410011 8.75 8.6875 C9.72286296 10.14005715 10.69689316 11.59183298 11.671875 13.04296875 C12.20103516 13.83493652 12.73019531 14.6269043 13.27539062 15.44287109 C16.46144668 20.16692986 19.73734566 24.82868196 23 29.5 C27.94995113 36.60473755 32.88128501 43.72132401 37.77734375 50.86328125 C42.50929478 57.75760753 47.29386212 64.61524396 52.07348633 71.4765625 C56.56148835 77.92252591 61.02954267 84.38154785 65.46289062 90.86523438 C68.2582742 94.94730991 71.11413111 98.98131224 74 103 C72.49392117 107.10088936 70.03811122 108.53509554 66.375 110.75 C65.37210937 111.36359375 64.36921875 111.9771875 63.3359375 112.609375 C62.17964844 113.29773438 62.17964844 113.29773438 61 114 C56.35530934 109.72932001 52.93532248 104.87656431 49.375 99.6875 C48.7567334 98.79522705 48.1384668 97.9029541 47.50146484 96.98364258 C45.66211168 94.3261926 43.82992677 91.66394715 42 89 C41.06774731 87.6458065 40.13545941 86.29163724 39.203125 84.9375 C37.90924663 83.05653466 36.6163685 81.17490632 35.32568359 79.29174805 C31.24553751 73.34135042 27.12379681 67.42020234 23 61.5 C18.05916145 54.40624425 13.13466455 47.3022342 8.24682617 40.171875 C1.54879021 30.41277989 -5.23331663 20.71155011 -12 11 C-10.26450191 7.16657048 -8.39620593 5.59747062 -4.875 3.25 C-3.50988281 2.32960938 -3.50988281 2.32960938 -2.1171875 1.390625 C-1.06917969 0.70226562 -1.06917969 0.70226562 0 0 Z " fill="#000000" transform="translate(13,339)"/>
<path d="M0 0 C4.4252609 1.51230246 6.31230948 4.95410011 8.75 8.6875 C9.72286296 10.14005715 10.69689316 11.59183298 11.671875 13.04296875 C12.20103516 13.83493652 12.73019531 14.6269043 13.27539062 15.44287109 C16.46144668 20.16692986 19.73734566 24.82868196 23 29.5 C27.94995113 36.60473755 32.88128501 43.72132401 37.77734375 50.86328125 C42.50929478 57.75760753 47.29386212 64.61524396 52.07348633 71.4765625 C56.56148835 77.92252591 61.02954267 84.38154785 65.46289062 90.86523438 C68.2582742 94.94730991 71.11413111 98.98131224 74 103 C72.49392117 107.10088936 70.03811122 108.53509554 66.375 110.75 C65.37210937 111.36359375 64.36921875 111.9771875 63.3359375 112.609375 C62.17964844 113.29773438 62.17964844 113.29773438 61 114 C56.35530934 109.72932001 52.93532248 104.87656431 49.375 99.6875 C48.7567334 98.79522705 48.1384668 97.9029541 47.50146484 96.98364258 C45.66211168 94.3261926 43.82992677 91.66394715 42 89 C41.06774731 87.6458065 40.13545941 86.29163724 39.203125 84.9375 C37.90924663 83.05653466 36.6163685 81.17490632 35.32568359 79.29174805 C31.24553751 73.34135042 27.12379681 67.42020234 23 61.5 C18.05916145 54.40624425 13.13466455 47.3022342 8.24682617 40.171875 C1.54879021 30.41277989 -5.23331663 20.71155011 -12 11 C-10.26450191 7.16657048 -8.39620593 5.59747062 -4.875 3.25 C-3.50988281 2.32960938 -3.50988281 2.32960938 -2.1171875 1.390625 C-1.06917969 0.70226562 -1.06917969 0.70226562 0 0 Z " fill="#000000" transform="translate(61,307)"/>
<path d="M0 0 C3.34708051 1.54841575 6.24667512 3.49105864 9.25 5.625 C10.14203125 6.25664063 11.0340625 6.88828125 11.953125 7.5390625 C12.62859375 8.02117187 13.3040625 8.50328125 14 9 C12.52520973 13.29682137 10.24105825 16.69515611 7.5625 20.3125 C6.6484821 21.56939902 5.7357673 22.82724647 4.82421875 24.0859375 C4.35419434 24.73401367 3.88416992 25.38208984 3.39990234 26.04980469 C1.17708919 29.14639196 -0.97488196 32.29019077 -3.125 35.4375 C-7.71725541 42.14797593 -12.35177399 48.82817876 -17 55.5 C-21.51858969 61.98738121 -26.0294811 68.47938854 -30.5 75 C-35.08378227 81.68081626 -39.69281979 88.34395802 -44.3125 95 C-44.9828125 95.96808594 -45.653125 96.93617188 -46.34375 97.93359375 C-50.12344518 103.37303532 -53.97692831 108.73768275 -58 114 C-61.83663072 112.65070536 -64.65172569 110.92248975 -67.8125 108.375 C-68.99779297 107.42753906 -68.99779297 107.42753906 -70.20703125 106.4609375 C-70.79871094 105.97882813 -71.39039063 105.49671875 -72 105 C-70.38973307 100.09297354 -67.56133616 96.32054758 -64.5625 92.1875 C-63.46399559 90.65295055 -62.36635722 89.11778082 -61.26953125 87.58203125 C-60.7173291 86.81068848 -60.16512695 86.0393457 -59.59619141 85.24462891 C-57.27538919 81.98102297 -55.00940042 78.68128305 -52.75 75.375 C-48.19872842 68.72753797 -43.60497225 62.11036339 -39 55.5 C-34.48144173 49.01259624 -29.97055223 42.52058919 -25.5 36 C-20.87341554 29.25748487 -16.2233685 22.5313599 -11.5625 15.8125 C-10.87542969 14.81927734 -10.18835938 13.82605469 -9.48046875 12.80273438 C-8.82820313 11.86365234 -8.1759375 10.92457031 -7.50390625 9.95703125 C-6.92455322 9.12147705 -6.3452002 8.28592285 -5.74829102 7.42504883 C-3.91290494 4.87919072 -1.97981838 2.43467453 0 0 Z " fill="#000000" transform="translate(121,91)"/>
<path d="M0 0 C3.34708051 1.54841575 6.24667512 3.49105864 9.25 5.625 C10.14203125 6.25664063 11.0340625 6.88828125 11.953125 7.5390625 C12.62859375 8.02117187 13.3040625 8.50328125 14 9 C12.52520973 13.29682137 10.24105825 16.69515611 7.5625 20.3125 C6.6484821 21.56939902 5.7357673 22.82724647 4.82421875 24.0859375 C4.35419434 24.73401367 3.88416992 25.38208984 3.39990234 26.04980469 C1.17708919 29.14639196 -0.97488196 32.29019077 -3.125 35.4375 C-7.71725541 42.14797593 -12.35177399 48.82817876 -17 55.5 C-21.51858969 61.98738121 -26.0294811 68.47938854 -30.5 75 C-35.08378227 81.68081626 -39.69281979 88.34395802 -44.3125 95 C-44.9828125 95.96808594 -45.653125 96.93617188 -46.34375 97.93359375 C-50.12344518 103.37303532 -53.97692831 108.73768275 -58 114 C-61.83663072 112.65070536 -64.65172569 110.92248975 -67.8125 108.375 C-68.99779297 107.42753906 -68.99779297 107.42753906 -70.20703125 106.4609375 C-70.79871094 105.97882813 -71.39039062 105.49671875 -72 105 C-70.38973307 100.09297354 -67.56133616 96.32054758 -64.5625 92.1875 C-63.46399559 90.65295055 -62.36635722 89.11778082 -61.26953125 87.58203125 C-60.7173291 86.81068848 -60.16512695 86.0393457 -59.59619141 85.24462891 C-57.27538919 81.98102297 -55.00940042 78.68128305 -52.75 75.375 C-48.19872842 68.72753797 -43.60497225 62.11036339 -39 55.5 C-34.48144173 49.01259624 -29.97055223 42.52058919 -25.5 36 C-20.87341554 29.25748487 -16.2233685 22.5313599 -11.5625 15.8125 C-10.87542969 14.81927734 -10.18835938 13.82605469 -9.48046875 12.80273438 C-8.82820313 11.86365234 -8.1759375 10.92457031 -7.50390625 9.95703125 C-6.92455322 9.12147705 -6.3452002 8.28592285 -5.74829102 7.42504883 C-3.91290494 4.87919072 -1.97981838 2.43467453 0 0 Z " fill="#000000" transform="translate(97,75)"/>
<path d="M0 0 C3.83663072 1.34929464 6.65172569 3.07751025 9.8125 5.625 C10.60269531 6.25664063 11.39289063 6.88828125 12.20703125 7.5390625 C12.79871094 8.02117187 13.39039062 8.50328125 14 9 C12.52520973 13.29682137 10.24105825 16.69515611 7.5625 20.3125 C6.6484821 21.56939902 5.7357673 22.82724647 4.82421875 24.0859375 C4.35419434 24.73401367 3.88416992 25.38208984 3.39990234 26.04980469 C1.17708919 29.14639196 -0.97488196 32.29019077 -3.125 35.4375 C-7.71725541 42.14797593 -12.35177399 48.82817876 -17 55.5 C-21.51858969 61.98738121 -26.0294811 68.47938854 -30.5 75 C-35.08378227 81.68081626 -39.69281979 88.34395802 -44.3125 95 C-44.9828125 95.96808594 -45.653125 96.93617188 -46.34375 97.93359375 C-50.12344518 103.37303532 -53.97692831 108.73768275 -58 114 C-61.32116353 112.38880357 -64.23739 110.51553868 -67.25 108.375 C-68.58804688 107.42753906 -68.58804688 107.42753906 -69.953125 106.4609375 C-70.62859375 105.97882813 -71.3040625 105.49671875 -72 105 C-70.38973307 100.09297354 -67.56133616 96.32054758 -64.5625 92.1875 C-63.46399559 90.65295055 -62.36635722 89.11778082 -61.26953125 87.58203125 C-60.7173291 86.81068848 -60.16512695 86.0393457 -59.59619141 85.24462891 C-57.27538919 81.98102297 -55.00940042 78.68128305 -52.75 75.375 C-48.19872842 68.72753797 -43.60497225 62.11036339 -39 55.5 C-34.48144173 49.01259624 -29.97055223 42.52058919 -25.5 36 C-20.87341554 29.25748487 -16.2233685 22.5313599 -11.5625 15.8125 C-10.87542969 14.81927734 -10.18835937 13.82605469 -9.48046875 12.80273438 C-8.82820313 11.86365234 -8.1759375 10.92457031 -7.50390625 9.95703125 C-6.92455322 9.12147705 -6.3452002 8.28592285 -5.74829102 7.42504883 C-3.91290494 4.87919072 -1.97981838 2.43467453 0 0 Z " fill="#000000" transform="translate(73,59)"/>
<path d="M0 0 C3.50875604 1.43320065 5.03343908 3.05918375 7.109375 6.19921875 C7.69106445 7.06724121 8.27275391 7.93526367 8.87207031 8.82958984 C9.49178711 9.7727002 10.11150391 10.71581055 10.75 11.6875 C12.0926017 13.69477895 13.4363907 15.70126417 14.78125 17.70703125 C15.47476562 18.74553223 16.16828125 19.7840332 16.8828125 20.85400391 C20.27994067 25.90190446 23.76432628 30.88801708 27.25 35.875 C31.68667474 42.2364553 36.11523564 48.60263878 40.5 55 C44.27956007 60.51342243 48.08619505 66.00746933 51.90625 71.49291992 C53.29288184 73.48442464 54.67831527 75.47676436 56.0625 77.4699707 C59.17851007 81.95635107 62.3029639 86.4352922 65.46875 90.88671875 C65.98566406 91.62019531 66.50257813 92.35367188 67.03515625 93.109375 C67.98335761 94.45455666 68.93865573 95.79477548 69.90234375 97.12890625 C72.24548959 100.4720863 73 101.78280114 73 106 C70.69921875 108.140625 70.69921875 108.140625 67.6875 110.25 C66.20830078 111.30960938 66.20830078 111.30960938 64.69921875 112.390625 C62 114 62 114 59 114 C57.51953125 112.18359375 57.51953125 112.18359375 55.8125 109.4375 C51.74888734 103.10216291 47.50071603 96.91813544 43.1875 90.75 C41.77438493 88.72420568 40.36162112 86.69816628 38.94921875 84.671875 C38.27036621 83.69798828 37.59151367 82.72410156 36.89208984 81.72070312 C34.41369047 78.15692473 31.95368305 74.5808216 29.5 71 C25.02991362 64.47909373 20.51847962 57.98745251 16 51.5 C10.4680491 43.55718481 4.96015777 35.59880128 -0.515625 27.6171875 C-4.32520529 22.06531101 -8.16295904 16.53291833 -12 11 C-10.50253294 7.11002809 -8.29577922 5.53051948 -4.875 3.25 C-3.50988281 2.32960938 -3.50988281 2.32960938 -2.1171875 1.390625 C-1.06917969 0.70226562 -1.06917969 0.70226562 0 0 Z " fill="#000000" transform="translate(413,75)"/>
<path d="M0 0 C3.83663072 1.34929464 6.65172569 3.07751025 9.8125 5.625 C10.60269531 6.25664062 11.39289063 6.88828125 12.20703125 7.5390625 C12.79871094 8.02117187 13.39039063 8.50328125 14 9 C12.38976623 13.9069254 9.56153072 17.67964339 6.5625 21.8125 C5.4743419 23.33137362 4.38712409 24.85092127 3.30078125 26.37109375 C2.74986816 27.14050293 2.19895508 27.90991211 1.63134766 28.70263672 C-0.87337558 32.22994077 -3.31207293 35.80135779 -5.75 39.375 C-10.05381396 45.66928929 -14.46623334 51.86837288 -19 58 C-22.83663072 56.65070536 -25.65172569 54.92248975 -28.8125 52.375 C-29.60269531 51.74335938 -30.39289063 51.11171875 -31.20703125 50.4609375 C-32.09455078 49.73777344 -32.09455078 49.73777344 -33 49 C-31.6517939 45.27739092 -29.9719548 42.27361607 -27.69140625 39.04296875 C-27.03172852 38.10243652 -26.37205078 37.1619043 -25.69238281 36.19287109 C-24.98952148 35.20109863 -24.28666016 34.20932617 -23.5625 33.1875 C-22.11025238 31.12139221 -20.65843155 29.05498436 -19.20703125 26.98828125 C-18.13509521 25.46581787 -18.13509521 25.46581787 -17.04150391 23.91259766 C-13.80235586 19.29133047 -10.62059266 14.63112609 -7.45141602 9.96166992 C-5.10114846 6.52042562 -2.64753366 3.2183322 0 0 Z " fill="#000000" transform="translate(458,395)"/>
<path d="M0 0 C3.19432919 1.35678154 4.7667051 2.65646897 6.671875 5.54296875 C7.40990356 6.64294189 7.40990356 6.64294189 8.1628418 7.76513672 C8.686604 8.5645166 9.21036621 9.36389648 9.75 10.1875 C10.895781 11.90324901 12.04298413 13.61804893 13.19140625 15.33203125 C13.80129395 16.24549316 14.41118164 17.15895508 15.03955078 18.10009766 C17.10645079 21.15746233 19.21596866 24.18117955 21.33984375 27.19921875 C22.06268555 28.22700439 22.78552734 29.25479004 23.53027344 30.3137207 C24.94840172 32.32615964 26.36954053 34.3364811 27.79394531 36.34448242 C28.44331055 37.2697876 29.09267578 38.19509277 29.76171875 39.1484375 C30.33881592 39.96489746 30.91591309 40.78135742 31.51049805 41.62255859 C33 44 33 44 35 49 C29.06 53.455 29.06 53.455 23 58 C19.01695625 56.00847813 18.20870415 55.30707912 15.890625 51.80078125 C15.30804932 50.93146973 14.72547363 50.0621582 14.12524414 49.16650391 C13.50641357 48.22468262 12.88758301 47.28286133 12.25 46.3125 C10.92176057 44.32602829 9.59228968 42.34037954 8.26171875 40.35546875 C7.56997559 39.3195459 6.87823242 38.28362305 6.16552734 37.21630859 C2.52556669 31.81012577 -1.2063512 26.4684721 -4.9375 21.125 C-5.64165039 20.11477783 -6.34580078 19.10455566 -7.07128906 18.0637207 C-8.71319599 15.70844907 -10.35607741 13.35386496 -12 11 C-10.26450191 7.16657048 -8.39620593 5.59747062 -4.875 3.25 C-3.50988281 2.32960938 -3.50988281 2.32960938 -2.1171875 1.390625 C-1.06917969 0.70226562 -1.06917969 0.70226562 0 0 Z " fill="#000000" transform="translate(37,323)"/>
<path d="M0 0 C1.48046875 1.81640625 1.48046875 1.81640625 3.1875 4.5625 C7.33111785 11.02438731 11.66669131 17.33193059 16.0625 23.625 C17.07123169 25.07241577 17.07123169 25.07241577 18.1003418 26.54907227 C22.39200899 32.70513075 26.6945036 38.85360798 31 45 C29.20092182 49.03874694 27.17561651 50.45195281 23.375 52.75 C22.37210938 53.36359375 21.36921875 53.9771875 20.3359375 54.609375 C19.17964844 55.29773438 19.17964844 55.29773438 18 56 C13.35529525 51.72930705 9.93536218 46.87659613 6.375 41.6875 C5.4617395 40.36975586 5.4617395 40.36975586 4.5300293 39.02539062 C2.68090576 36.35419298 0.83931865 33.67795621 -1 31 C-1.55187988 30.19771973 -2.10375977 29.39543945 -2.67236328 28.56884766 C-6.74629784 22.64598324 -6.74629784 22.64598324 -8.53564453 20.02612305 C-10.23233141 17.54500676 -11.92182982 15.09767033 -13.80078125 12.75 C-15 11 -15 11 -15 8 C-12.48046875 5.95703125 -12.48046875 5.95703125 -9.1875 3.8125 C-8.10855469 3.09707031 -7.02960938 2.38164062 -5.91796875 1.64453125 C-3 0 -3 0 0 0 Z " fill="#000000" transform="translate(80,381)"/>
<path d="M0 0 C3.86374965 1.4775658 6.94801477 3.20257063 10.3125 5.625 C11.19550781 6.25664062 12.07851563 6.88828125 12.98828125 7.5390625 C13.65214844 8.02117187 14.31601562 8.50328125 15 9 C10.32161377 18.87911655 3.08915012 27.79648441 -3.125 36.75 C-4.1461792 38.22303589 -4.1461792 38.22303589 -5.18798828 39.72583008 C-9.02154532 45.23277999 -12.92426708 50.66945633 -17 56 C-20.62276315 54.6744419 -23.63505348 53.05653045 -26.8125 50.875 C-27.60269531 50.33617187 -28.39289063 49.79734375 -29.20703125 49.2421875 C-29.79871094 48.83226562 -30.39039063 48.42234375 -31 48 C-30.36882211 44.61998973 -29.10044959 42.38419008 -27.1484375 39.5703125 C-26.5510376 38.70229004 -25.9536377 37.83426758 -25.33813477 36.93994141 C-24.36638306 35.54654541 -24.36638306 35.54654541 -23.375 34.125 C-22.01674958 32.15637246 -20.65868235 30.18761851 -19.30078125 28.21875 C-18.59646973 27.20167969 -17.8921582 26.18460937 -17.16650391 25.13671875 C-13.60695201 19.98311014 -10.08636384 14.80304406 -6.5625 9.625 C-5.29315249 7.76289557 -4.02363835 5.90090471 -2.75390625 4.0390625 C-2.22095947 3.25740723 -1.6880127 2.47575195 -1.13891602 1.67041016 C-0.76307373 1.1191748 -0.38723145 0.56793945 0 0 Z " fill="#000000" transform="translate(496,339)"/>
<path d="M0 0 C3.86374965 1.4775658 6.94801477 3.20257063 10.3125 5.625 C11.19550781 6.25664062 12.07851563 6.88828125 12.98828125 7.5390625 C13.65214844 8.02117187 14.31601562 8.50328125 15 9 C10.32161377 18.87911655 3.08915012 27.79648441 -3.125 36.75 C-4.1461792 38.22303589 -4.1461792 38.22303589 -5.18798828 39.72583008 C-9.02154532 45.23277999 -12.92426708 50.66945633 -17 56 C-20.62276315 54.6744419 -23.63505348 53.05653045 -26.8125 50.875 C-27.60269531 50.33617187 -28.39289063 49.79734375 -29.20703125 49.2421875 C-29.79871094 48.83226562 -30.39039063 48.42234375 -31 48 C-30.36882211 44.61998973 -29.10044959 42.38419008 -27.1484375 39.5703125 C-26.5510376 38.70229004 -25.9536377 37.83426758 -25.33813477 36.93994141 C-24.36638306 35.54654541 -24.36638306 35.54654541 -23.375 34.125 C-22.01674958 32.15637246 -20.65868235 30.18761851 -19.30078125 28.21875 C-18.59646973 27.20167969 -17.8921582 26.18460937 -17.16650391 25.13671875 C-13.60695201 19.98311014 -10.08636384 14.80304406 -6.5625 9.625 C-5.29315249 7.76289557 -4.02363835 5.90090471 -2.75390625 4.0390625 C-2.22095947 3.25740723 -1.6880127 2.47575195 -1.13891602 1.67041016 C-0.76307373 1.1191748 -0.38723145 0.56793945 0 0 Z " fill="#000000" transform="translate(472,323)"/>
<path d="M0 0 C4.42524082 1.5122956 6.31232579 4.9540095 8.75 8.6875 C9.71245185 10.12442847 10.67606853 11.56057718 11.640625 12.99609375 C12.43243164 14.18114502 12.43243164 14.18114502 13.24023438 15.39013672 C16.60551104 20.38109226 20.05847652 25.31146829 23.5 30.25 C24.19448242 31.24990967 24.88896484 32.24981934 25.60449219 33.2800293 C26.26094727 34.22402588 26.91740234 35.16802246 27.59375 36.140625 C28.17833984 36.98141602 28.76292969 37.82220703 29.36523438 38.68847656 C30.87401553 40.82186067 32.42062339 42.91853021 34 45 C32.50814889 48.80969888 30.39723489 50.45828792 27.0625 52.75 C26.18722656 53.36359375 25.31195313 53.9771875 24.41015625 54.609375 C22 56 22 56 19 56 C17.53637695 54.34545898 17.53637695 54.34545898 15.98828125 51.99609375 C15.40248291 51.12033691 14.81668457 50.24458008 14.21313477 49.34228516 C13.58592529 48.38370605 12.95871582 47.42512695 12.3125 46.4375 C10.97518675 44.43277375 9.63660014 42.42889647 8.296875 40.42578125 C7.24983398 38.85304443 7.24983398 38.85304443 6.18164062 37.24853516 C2.54133621 31.82800129 -1.19836307 26.47775884 -4.9375 21.125 C-5.64156982 20.11493896 -6.34563965 19.10487793 -7.07104492 18.06420898 C-8.71300054 15.70875162 -10.35597424 13.35401269 -12 11 C-10.26450191 7.16657048 -8.39620593 5.59747062 -4.875 3.25 C-3.50988281 2.32960938 -3.50988281 2.32960938 -2.1171875 1.390625 C-1.06917969 0.70226562 -1.06917969 0.70226562 0 0 Z " fill="#000000" transform="translate(477,117)"/>
<path d="M0 0 C3.89006773 1.38780795 6.96558708 3.2152227 10.3125 5.625 C11.19550781 6.25664062 12.07851563 6.88828125 12.98828125 7.5390625 C13.65214844 8.02117187 14.31601562 8.50328125 15 9 C10.32161377 18.87911655 3.08915012 27.79648441 -3.125 36.75 C-4.1461792 38.22303589 -4.1461792 38.22303589 -5.18798828 39.72583008 C-9.02154532 45.23277999 -12.92426708 50.66945633 -17 56 C-20.62276315 54.6744419 -23.63505348 53.05653045 -26.8125 50.875 C-27.60269531 50.33617187 -28.39289063 49.79734375 -29.20703125 49.2421875 C-29.79871094 48.83226562 -30.39039063 48.42234375 -31 48 C-30.38824566 44.92422331 -29.40790156 42.8289184 -27.62109375 40.26171875 C-27.11932617 39.53460693 -26.61755859 38.80749512 -26.10058594 38.05834961 C-25.55176758 37.27596924 -25.00294922 36.49358887 -24.4375 35.6875 C-23.87192383 34.87095947 -23.30634766 34.05441895 -22.72363281 33.21313477 C-20.82201688 30.47101282 -18.91144808 27.73527618 -17 25 C-14.80388088 21.84868048 -12.60877836 18.69665638 -10.41430664 15.54418945 C-8.98451726 13.4918409 -7.55274964 11.44086892 -6.11889648 9.39135742 C-5.46606689 8.45654541 -4.8132373 7.5217334 -4.140625 6.55859375 C-3.55829102 5.72642334 -2.97595703 4.89425293 -2.37597656 4.03686523 C-0.97459707 2.05761132 -0.97459707 2.05761132 0 0 Z " fill="#000000" transform="translate(448,307)"/>
<path d="M0 0 C4.42524082 1.5122956 6.31232579 4.9540095 8.75 8.6875 C9.71245185 10.12442847 10.67606853 11.56057718 11.640625 12.99609375 C12.43243164 14.18114502 12.43243164 14.18114502 13.24023438 15.39013672 C16.60551104 20.38109226 20.05847652 25.31146829 23.5 30.25 C24.19448242 31.24990967 24.88896484 32.24981934 25.60449219 33.2800293 C26.26094727 34.22402588 26.91740234 35.16802246 27.59375 36.140625 C28.17833984 36.98141602 28.76292969 37.82220703 29.36523438 38.68847656 C30.87401553 40.82186067 32.42062339 42.91853021 34 45 C32.50814889 48.80969888 30.39723489 50.45828792 27.0625 52.75 C26.18722656 53.36359375 25.31195313 53.9771875 24.41015625 54.609375 C22 56 22 56 19 56 C17.51953125 54.18359375 17.51953125 54.18359375 15.8125 51.4375 C11.66888215 44.97561269 7.33330869 38.66806941 2.9375 32.375 C2.26501221 31.41005615 1.59252441 30.4451123 0.8996582 29.45092773 C0.24054443 28.50548096 -0.41856934 27.56003418 -1.09765625 26.5859375 C-1.74234863 25.6587793 -2.38704102 24.73162109 -3.05126953 23.77636719 C-4.37064058 21.89665189 -5.70548322 20.02771768 -7.05419922 18.16894531 C-8.01543701 16.83621582 -8.01543701 16.83621582 -8.99609375 15.4765625 C-9.8631897 14.29054443 -9.8631897 14.29054443 -10.74780273 13.08056641 C-12 11 -12 11 -12 8 C-9.375 5.95703125 -9.375 5.95703125 -6 3.8125 C-5.42765625 3.44447266 -4.8553125 3.07644531 -4.265625 2.69726562 C-2.84975538 1.78874929 -1.42562203 0.89313523 0 0 Z " fill="#000000" transform="translate(429,149)"/>
<path d="M0 0 C4.00735217 0.60110283 6.55469371 2.66602028 9.75 5.0625 C10.73484375 5.79597656 11.7196875 6.52945312 12.734375 7.28515625 C13.85585938 8.13400391 13.85585938 8.13400391 15 9 C11.91096411 15.01470931 8.33516119 20.42552843 4.3046875 25.84765625 C1.6244129 29.51372676 -0.94112409 33.24871523 -3.5 37 C-7.88657978 43.42051671 -12.37648122 49.74698892 -17 56 C-20.83663072 54.65070536 -23.65172569 52.92248975 -26.8125 50.375 C-27.60269531 49.74335938 -28.39289063 49.11171875 -29.20703125 48.4609375 C-30.09455078 47.73777344 -30.09455078 47.73777344 -31 47 C-29.72922456 43.54459484 -28.2639011 40.69419401 -26.12890625 37.69921875 C-25.55962402 36.89436035 -24.9903418 36.08950195 -24.40380859 35.26025391 C-23.79617676 34.41124512 -23.18854492 33.56223633 -22.5625 32.6875 C-21.2950056 30.897537 -20.02808613 29.10716677 -18.76171875 27.31640625 C-18.12927246 26.42453613 -17.49682617 25.53266602 -16.84521484 24.61376953 C-14.15690519 20.80574583 -11.51141397 16.96906461 -8.875 13.125 C-8.43873291 12.49037842 -8.00246582 11.85575684 -7.55297852 11.2019043 C-5.00445057 7.48802169 -2.4905355 3.75301894 0 0 Z " fill="#000000" transform="translate(432,381)"/>
<path d="M0 0 C4.00735217 0.60110283 6.55469371 2.66602028 9.75 5.0625 C10.73484375 5.79597656 11.7196875 6.52945312 12.734375 7.28515625 C13.85585938 8.13400391 13.85585938 8.13400391 15 9 C11.91096411 15.01470931 8.33516119 20.42552843 4.3046875 25.84765625 C1.6244129 29.51372676 -0.94112409 33.24871523 -3.5 37 C-7.88657978 43.42051671 -12.37648122 49.74698892 -17 56 C-20.83663072 54.65070536 -23.65172569 52.92248975 -26.8125 50.375 C-27.60269531 49.74335938 -28.39289063 49.11171875 -29.20703125 48.4609375 C-30.09455078 47.73777344 -30.09455078 47.73777344 -31 47 C-29.72922456 43.54459484 -28.2639011 40.69419401 -26.12890625 37.69921875 C-25.55962402 36.89436035 -24.9903418 36.08950195 -24.40380859 35.26025391 C-23.79617676 34.41124512 -23.18854492 33.56223633 -22.5625 32.6875 C-21.2950056 30.897537 -20.02808613 29.10716677 -18.76171875 27.31640625 C-18.12927246 26.42453613 -17.49682617 25.53266602 -16.84521484 24.61376953 C-14.15690519 20.80574583 -11.51141397 16.96906461 -8.875 13.125 C-8.43873291 12.49037842 -8.00246582 11.85575684 -7.55297852 11.2019043 C-5.00445057 7.48802169 -2.4905355 3.75301894 0 0 Z " fill="#000000" transform="translate(408,365)"/>
<path d="M0 0 C3.99043049 1.99521525 4.8115194 2.7203562 7.14453125 6.234375 C7.73226318 7.10884277 8.31999512 7.98331055 8.92553711 8.88427734 C9.54823486 9.82996582 10.17093262 10.7756543 10.8125 11.75 C12.14295564 13.73716233 13.47369361 15.72413565 14.8046875 17.7109375 C15.49014648 18.74057617 16.17560547 19.77021484 16.88183594 20.83105469 C20.36240737 26.03827198 23.9022672 31.20481253 27.4375 36.375 C28.70731168 38.23678794 29.97686909 40.09874933 31.24609375 41.9609375 C31.77904053 42.74259277 32.3119873 43.52424805 32.86108398 44.32958984 C33.23692627 44.8808252 33.61276855 45.43206055 34 46 C31.25105814 48.81034435 28.57049372 51.51437096 25.375 53.8125 C24.80523437 54.23144531 24.23546875 54.65039062 23.6484375 55.08203125 C22 56 22 56 19 56 C17.7199707 54.62084961 17.7199707 54.62084961 16.42578125 52.65234375 C15.6829187 51.54270264 15.6829187 51.54270264 14.92504883 50.41064453 C14.39290771 49.59450684 13.8607666 48.77836914 13.3125 47.9375 C12.15766012 46.20348713 11.00134026 44.47045924 9.84375 42.73828125 C9.22757812 41.81225098 8.61140625 40.8862207 7.9765625 39.93212891 C5.90534693 36.85958703 3.78888012 33.82317525 1.65625 30.79296875 C0.93397217 29.76631104 0.21169434 28.73965332 -0.5324707 27.68188477 C-1.94995813 25.67119483 -3.37029116 23.66250744 -4.79370117 21.65600586 C-5.44314697 20.73053955 -6.09259277 19.80507324 -6.76171875 18.8515625 C-7.33881592 18.03510254 -7.91591309 17.21864258 -8.51049805 16.37744141 C-10 14 -10 14 -12 9 C-8.04 6.03 -4.08 3.06 0 0 Z " fill="#000000" transform="translate(389,91)"/>
<path d="M0 0 C3.99043049 1.99521525 4.8115194 2.7203562 7.14453125 6.234375 C7.73226318 7.10868164 8.31999512 7.98298828 8.92553711 8.88378906 C9.54823486 9.82963867 10.17093262 10.77548828 10.8125 11.75 C12.14278269 13.73988188 13.47352614 15.7294558 14.8046875 17.71875 C15.49014648 18.74871094 16.17560547 19.77867188 16.88183594 20.83984375 C19.00317246 24.00473309 21.15532386 27.14608748 23.3203125 30.28125 C24.01020264 31.28188477 24.70009277 32.28251953 25.41088867 33.31347656 C26.74701664 35.249502 28.08566523 37.18379063 29.42700195 39.11621094 C30.02730225 39.99051758 30.62760254 40.86482422 31.24609375 41.765625 C31.77904053 42.53680664 32.3119873 43.30798828 32.86108398 44.10253906 C34 46 34 46 34 48 C32.11947058 49.45194365 30.16863151 50.81364605 28.1875 52.125 C27.10855469 52.84945312 26.02960938 53.57390625 24.91796875 54.3203125 C22 56 22 56 19 56 C17.7199707 54.62084961 17.7199707 54.62084961 16.42578125 52.65234375 C15.6829187 51.54270264 15.6829187 51.54270264 14.92504883 50.41064453 C14.39290771 49.59450684 13.8607666 48.77836914 13.3125 47.9375 C12.15766012 46.20348713 11.00134026 44.47045924 9.84375 42.73828125 C9.22757812 41.81225098 8.61140625 40.8862207 7.9765625 39.93212891 C5.90534693 36.85958703 3.78888012 33.82317525 1.65625 30.79296875 C0.93397217 29.76631104 0.21169434 28.73965332 -0.5324707 27.68188477 C-1.94995813 25.67119483 -3.37029116 23.66250744 -4.79370117 21.65600586 C-5.44314697 20.73053955 -6.09259277 19.80507324 -6.76171875 18.8515625 C-7.33881592 18.03510254 -7.91591309 17.21864258 -8.51049805 16.37744141 C-10 14 -10 14 -12 9 C-8.04 6.03 -4.08 3.06 0 0 Z " fill="#000000" transform="translate(437,59)"/>
</svg>
